<?xml version="1.0" standalone="no"?>
<!DOCTYPE svg PUBLIC "-//W3C//DTD SVG 20010904//EN"
 "http://www.w3.org/TR/2001/REC-SVG-20010904/DTD/svg10.dtd">
<svg version="1.0" xmlns="http://www.w3.org/2000/svg"
 width="260.000000pt" height="260.000000pt" viewBox="0 0 260.000000 260.000000"
 preserveAspectRatio="xMidYMid meet">
<metadata>
Created by potrace 1.11, written by Peter Selinger 2001-2013
</metadata>
<g transform="translate(0.000000,260.000000) scale(0.100000,-0.100000)"
fill="#000000" stroke="none">
<path d="M0 1300 l0 -1300 1300 0 1300 0 0 1300 0 1300 -1300 0 -1300 0 0
-1300z m1160 586 c25 -8 104 -36 175 -61 165 -59 166 -60 206 -42 146 63 302
118 326 115 l28 -3 3 -526 c2 -414 -1 -529 -10 -536 -16 -13 -368 -133 -389
-133 -8 0 -90 27 -181 60 -91 33 -180 63 -197 66 -30 6 -112 -21 -324 -108
-27 -10 -58 -18 -70 -16 l-22 3 0 534 0 535 180 62 c99 34 191 63 205 63 14 0
45 -6 70 -13z"/>
<path d="M1100 1370 l0 -390 28 -11 c15 -6 61 -22 102 -34 41 -13 115 -38 163
-55 49 -18 90 -30 92 -29 2 2 5 177 6 388 l3 385 -105 38 c-113 41 -279 98
-285 98 -2 0 -4 -176 -4 -390z"/>
</g>
</svg>
